<svg xmlns="http://www.w3.org/2000/svg" viewBox="0 0 814.98 46.92"><title>logo</title><path d="M78,31.18a13.49,13.49,0,0,1,23-9.54L99.6,23.23a11.32,11.32,0,1,0-8,19.33,11.14,11.14,0,0,0,8-3.28l1.55,1.48A13.57,13.57,0,0,1,78,31.18Z" style="fill:#333"/><path d="M106.26,18.48h2V42H122.1v2H106.26Z" style="fill:#333"/><path d="M126.64,18.48h2V44h-2Z" style="fill:#333"/><path d="M135.91,18.48h8.33a7.53,7.53,0,1,1,0,15.06h-6.36V44h-2Zm8.33,13A5.5,5.5,0,0,0,149.85,26a5.38,5.38,0,0,0-5.61-5.57h-6.32V31.5Z" style="fill:#333"/><path d="M166.77,37.73h2.12c0,2.67,3.24,4.83,6.55,4.83,3.46,0,7.06-1.91,7.06-5.22,0-2.27-2.34-5.08-7.17-5.08-4.13,0-8.6-3.06-8.6-7.09,0-4.18,3.64-7.49,8.89-7.49,4.57,0,9,2.81,9,7h-2.13c0-2.88-3.09-4.82-6.87-4.82s-6.73,2.09-6.73,5.22c0,2.16,2.26,5,6.87,5,5.44,0,8.89,3.74,8.89,7.2,0,4.32-4.35,7.34-9,7.34C170.66,44.68,166.77,41.4,166.77,37.73Z" style="fill:#333"/><path d="M194,20.49h-9v-2h20v2h-9V44h-2Z" style="fill:#333"/><path d="M208.92,33.78V18.48h2v15.3a8,8,0,1,0,16.08,0V18.48h2v15.3a10.05,10.05,0,1,1-20.1,0Z" style="fill:#333"/><path d="M235.57,18.48h9.65a12.75,12.75,0,0,1,0,25.5h-9.65ZM245.22,42a10.74,10.74,0,0,0,0-21.48h-7.65V42Z" style="fill:#333"/><path d="M263.6,18.48h2V44h-2Z" style="fill:#333"/><path d="M284.07,44a12.75,12.75,0,1,1,12.72-12.75A12.75,12.75,0,0,1,284.07,44Zm0-23.43a10.7,10.7,0,1,0,10.67,10.68A10.65,10.65,0,0,0,284.11,20.55Z" style="fill:#333"/><path d="M314.29,17.68h8.82a8,8,0,1,1,0,16h-6.73v11h-2.12Zm8.82,13.79a5.84,5.84,0,0,0,5.94-5.83,5.71,5.71,0,0,0-5.94-5.91h-6.7V31.47Z" style="fill:#333"/><path d="M350.54,37.15H336.67L333.47,44H331.3l11.9-25.5H344L356,44h-2.25Zm-1-2-6-12.82-6,12.82Z" style="fill:#333"/><path d="M360.52,18.48h2V44h-2Z" style="fill:#333"/><path d="M369.41,18.48H371l17.71,22.34V18.48h2V44h-2L371.42,22.12V44h-2Z" style="fill:#333"/><path d="M404.17,20.49h-9v-2h20v2h-9V44h-2Z" style="fill:#333"/><path d="M429.75,37.73h2.13c0,2.67,3.23,4.83,6.55,4.83s7.05-1.91,7.05-5.22c0-2.27-2.34-5.08-7.16-5.08-4.14,0-8.61-3.06-8.61-7.09,0-4.18,3.64-7.49,8.9-7.49,4.57,0,9,2.81,9,7h-2.13c0-2.88-3.09-4.82-6.87-4.82s-6.73,2.09-6.73,5.22c0,2.16,2.27,5,6.87,5,5.44,0,8.89,3.74,8.89,7.2,0,4.32-4.35,7.34-9,7.34C433.64,44.68,429.75,41.4,429.75,37.73Z" style="fill:#333"/><path d="M453,33.78V18.48h2v15.3a8,8,0,1,0,16.08,0V18.48h2v15.3a10,10,0,1,1-20.09,0Z" style="fill:#333"/><path d="M479.61,18.48h11.83a6.68,6.68,0,0,1,6.84,6.6,6.37,6.37,0,0,1-2.59,5.23,7.42,7.42,0,0,1,4,6.56A7.09,7.09,0,0,1,492.5,44H479.61Zm12,11.12a4.38,4.38,0,0,0,4.66-4.49,4.53,4.53,0,0,0-4.83-4.62h-9.79v9.14ZM492.05,42c3.88,0,5.61-2.55,5.61-5.13a5.09,5.09,0,0,0-5.44-5.2h-10.6V42Z" style="fill:#333"/><path d="M501.59,18.48h2.25L513.93,40l10.13-21.49h2.25l-12,25.5h-.72Z" style="fill:#333"/><path d="M530.26,18.48h2V44h-2Z" style="fill:#333"/><path d="M539.53,18.48h15.81v2H541.53v9.45h12.75v2H541.53V42h13.81v2H539.53Z" style="fill:#333"/><path d="M558.62,18.48h2.24L571,40l5.4-11.53h2.21L584,40l10.13-21.49h2.24l-12,25.5h-.71l-6.19-13.09L571.33,44h-.71Z" style="fill:#333"/><path d="M610.62,37.73h2.12c0,2.67,3.24,4.83,6.55,4.83,3.46,0,7.06-1.91,7.06-5.22,0-2.27-2.34-5.08-7.16-5.08-4.14,0-8.61-3.06-8.61-7.09,0-4.18,3.64-7.49,8.89-7.49,4.58,0,9,2.81,9,7h-2.13c0-2.88-3.09-4.82-6.87-4.82s-6.73,2.09-6.73,5.22c0,2.16,2.27,5,6.87,5,5.44,0,8.89,3.74,8.89,7.2,0,4.32-4.35,7.34-9,7.34C614.51,44.68,610.62,41.4,610.62,37.73Z" style="fill:#333"/><path d="M645.89,44a12.75,12.75,0,1,1,12.72-12.75A12.75,12.75,0,0,1,645.89,44Zm0-23.43A10.7,10.7,0,1,0,656.6,31.23,10.65,10.65,0,0,0,645.93,20.55Z" style="fill:#333"/><path d="M664.67,18.48h8.73A7.42,7.42,0,0,1,680.78,26a7.51,7.51,0,0,1-7.38,7.55L679.46,44h-2.69l-6-10.44h-4.05V44h-2Zm8.46,13A5.5,5.5,0,0,0,678.74,26a5.56,5.56,0,0,0-5.61-5.57h-6.46V31.5Z" style="fill:#333"/><path d="M692.27,20.49h-9v-2h20v2h-9V44h-2Z" style="fill:#333"/><path d="M726.46,19.81H717V17.68h21.17v2.13h-9.54V44.68h-2.12Z" style="fill:#333"/><path d="M750.69,44A12.75,12.75,0,1,1,763.4,31.23,12.75,12.75,0,0,1,750.69,44Zm0-23.43A10.7,10.7,0,1,0,761.4,31.23,10.65,10.65,0,0,0,750.72,20.55Z" style="fill:#333"/><path d="M780.61,44a12.75,12.75,0,1,1,12.71-12.75A12.75,12.75,0,0,1,780.61,44Zm0-23.43a10.7,10.7,0,1,0,10.68,10.68A10.65,10.65,0,0,0,780.64,20.55Z" style="fill:#333"/><path d="M799.14,18.48h2V42H815v2H799.14Z" style="fill:#333"/><rect x="11.13" y="40.8" width="53.78" height="6.12" rx="3.06" ry="3.06" style="fill:#666"/><path d="M51.05,6.11,3,10.22A2.89,2.89,0,0,1,0,7.41H0A3,3,0,0,1,2.58,4.12L50.62,0a2.9,2.9,0,0,1,3,2.81h0A3,3,0,0,1,51.05,6.11Z" style="fill:#69c"/><rect x="11.13" y="28.45" width="53.78" height="6.12" rx="3.06" ry="3.06" style="fill:#666"/><rect x="11.13" y="16.1" width="53.78" height="6.12" rx="3.06" ry="3.06" style="fill:#666"/></svg>